<mxfile host="Electron" modified="2025-10-12T09:34:57.444Z" agent="Mozilla/5.0 (Windows NT 10.0; Win64; x64) AppleWebKit/537.36 (KHTML, like Gecko) draw.io/22.1.16 Chrome/120.0.6099.109 Electron/28.1.0 Safari/537.36" etag="YE_4PpkSi2M1POieUKMc" version="22.1.16" type="device">
  <diagram name="Page-1" id="CFDEm0nTrIY9g4RONSaI">
    <mxGraphModel dx="1084" dy="926" grid="1" gridSize="10" guides="1" tooltips="1" connect="1" arrows="1" fold="1" page="1" pageScale="1" pageWidth="900" pageHeight="409" math="0" shadow="0">
      <root>
        <mxCell id="0" />
        <mxCell id="1" parent="0" />
        <mxCell id="DADRpLbTm06VgSmmD6s6-1" value="" style="whiteSpace=wrap;html=1;aspect=fixed;fillColor=none;" parent="1" vertex="1">
          <mxGeometry x="340" y="5" width="50" height="50" as="geometry" />
        </mxCell>
        <mxCell id="DADRpLbTm06VgSmmD6s6-2" value="" style="whiteSpace=wrap;html=1;aspect=fixed;fillColor=none;" parent="1" vertex="1">
          <mxGeometry x="390" y="5" width="50" height="50" as="geometry" />
        </mxCell>
        <mxCell id="DADRpLbTm06VgSmmD6s6-3" value="1" style="whiteSpace=wrap;html=1;aspect=fixed;strokeWidth=2;fillColor=#D4E1F5;fillOpacity=70;" parent="1" vertex="1">
          <mxGeometry x="440" y="5" width="50" height="50" as="geometry" />
        </mxCell>
        <mxCell id="DADRpLbTm06VgSmmD6s6-4" value="0" style="whiteSpace=wrap;html=1;aspect=fixed;fillColor=none;" parent="1" vertex="1">
          <mxGeometry x="490" y="5" width="50" height="50" as="geometry" />
        </mxCell>
        <mxCell id="DADRpLbTm06VgSmmD6s6-5" value="1" style="whiteSpace=wrap;html=1;aspect=fixed;fillColor=none;" parent="1" vertex="1">
          <mxGeometry x="540" y="5" width="50" height="50" as="geometry" />
        </mxCell>
        <mxCell id="DADRpLbTm06VgSmmD6s6-6" value="" style="whiteSpace=wrap;html=1;aspect=fixed;fillColor=none;" parent="1" vertex="1">
          <mxGeometry x="590" y="5" width="50" height="50" as="geometry" />
        </mxCell>
        <mxCell id="DADRpLbTm06VgSmmD6s6-7" value="" style="whiteSpace=wrap;html=1;aspect=fixed;fillColor=none;" parent="1" vertex="1">
          <mxGeometry x="640" y="5" width="50" height="50" as="geometry" />
        </mxCell>
        <mxCell id="DADRpLbTm06VgSmmD6s6-8" value="" style="shape=document;whiteSpace=wrap;html=1;boundedLbl=1;rotation=90;fillColor=none;" parent="1" vertex="1">
          <mxGeometry x="300" y="15" width="50" height="30" as="geometry" />
        </mxCell>
        <mxCell id="DADRpLbTm06VgSmmD6s6-9" value="" style="shape=document;whiteSpace=wrap;html=1;boundedLbl=1;rotation=-90;fillColor=none;" parent="1" vertex="1">
          <mxGeometry x="680" y="15" width="50" height="30" as="geometry" />
        </mxCell>
        <mxCell id="DADRpLbTm06VgSmmD6s6-10" value="" style="whiteSpace=wrap;html=1;aspect=fixed;fillColor=none;" parent="1" vertex="1">
          <mxGeometry x="290" y="75" width="50" height="50" as="geometry" />
        </mxCell>
        <mxCell id="DADRpLbTm06VgSmmD6s6-11" value="" style="whiteSpace=wrap;html=1;aspect=fixed;fillColor=none;" parent="1" vertex="1">
          <mxGeometry x="340" y="75" width="50" height="50" as="geometry" />
        </mxCell>
        <mxCell id="DADRpLbTm06VgSmmD6s6-12" value="1" style="whiteSpace=wrap;html=1;aspect=fixed;strokeWidth=1;fillColor=none;" parent="1" vertex="1">
          <mxGeometry x="390" y="75" width="50" height="50" as="geometry" />
        </mxCell>
        <mxCell id="DADRpLbTm06VgSmmD6s6-13" value="0" style="whiteSpace=wrap;html=1;aspect=fixed;strokeWidth=2;fillColor=#D4E1F5;fillOpacity=70;" parent="1" vertex="1">
          <mxGeometry x="440" y="75" width="50" height="50" as="geometry" />
        </mxCell>
        <mxCell id="DADRpLbTm06VgSmmD6s6-14" value="1" style="whiteSpace=wrap;html=1;aspect=fixed;fillColor=none;" parent="1" vertex="1">
          <mxGeometry x="490" y="75" width="50" height="50" as="geometry" />
        </mxCell>
        <mxCell id="DADRpLbTm06VgSmmD6s6-15" value="" style="whiteSpace=wrap;html=1;aspect=fixed;fillColor=none;" parent="1" vertex="1">
          <mxGeometry x="540" y="75" width="50" height="50" as="geometry" />
        </mxCell>
        <mxCell id="DADRpLbTm06VgSmmD6s6-16" value="" style="whiteSpace=wrap;html=1;aspect=fixed;fillColor=none;" parent="1" vertex="1">
          <mxGeometry x="590" y="75" width="50" height="50" as="geometry" />
        </mxCell>
        <mxCell id="DADRpLbTm06VgSmmD6s6-17" value="" style="shape=document;whiteSpace=wrap;html=1;boundedLbl=1;rotation=90;fillColor=none;" parent="1" vertex="1">
          <mxGeometry x="250" y="85" width="50" height="30" as="geometry" />
        </mxCell>
        <mxCell id="DADRpLbTm06VgSmmD6s6-18" value="" style="shape=document;whiteSpace=wrap;html=1;boundedLbl=1;rotation=-90;fillColor=none;" parent="1" vertex="1">
          <mxGeometry x="630" y="85" width="50" height="30" as="geometry" />
        </mxCell>
        <mxCell id="DADRpLbTm06VgSmmD6s6-19" value="" style="whiteSpace=wrap;html=1;aspect=fixed;fillColor=none;" parent="1" vertex="1">
          <mxGeometry x="240" y="145" width="50" height="50" as="geometry" />
        </mxCell>
        <mxCell id="DADRpLbTm06VgSmmD6s6-20" value="" style="whiteSpace=wrap;html=1;aspect=fixed;fillColor=none;" parent="1" vertex="1">
          <mxGeometry x="290" y="145" width="50" height="50" as="geometry" />
        </mxCell>
        <mxCell id="DADRpLbTm06VgSmmD6s6-21" value="1" style="whiteSpace=wrap;html=1;aspect=fixed;strokeWidth=1;fillColor=none;" parent="1" vertex="1">
          <mxGeometry x="340" y="145" width="50" height="50" as="geometry" />
        </mxCell>
        <mxCell id="DADRpLbTm06VgSmmD6s6-22" value="0" style="whiteSpace=wrap;html=1;aspect=fixed;strokeWidth=1;fillColor=none;" parent="1" vertex="1">
          <mxGeometry x="390" y="145" width="50" height="50" as="geometry" />
        </mxCell>
        <mxCell id="DADRpLbTm06VgSmmD6s6-23" value="1" style="whiteSpace=wrap;html=1;aspect=fixed;strokeWidth=2;fillColor=#D4E1F5;fillOpacity=70;" parent="1" vertex="1">
          <mxGeometry x="440" y="145" width="50" height="50" as="geometry" />
        </mxCell>
        <mxCell id="DADRpLbTm06VgSmmD6s6-24" value="" style="whiteSpace=wrap;html=1;aspect=fixed;fillColor=none;" parent="1" vertex="1">
          <mxGeometry x="490" y="145" width="50" height="50" as="geometry" />
        </mxCell>
        <mxCell id="DADRpLbTm06VgSmmD6s6-25" value="" style="whiteSpace=wrap;html=1;aspect=fixed;fillColor=none;" parent="1" vertex="1">
          <mxGeometry x="540" y="145" width="50" height="50" as="geometry" />
        </mxCell>
        <mxCell id="DADRpLbTm06VgSmmD6s6-26" value="" style="shape=document;whiteSpace=wrap;html=1;boundedLbl=1;rotation=90;fillColor=none;" parent="1" vertex="1">
          <mxGeometry x="200" y="155" width="50" height="30" as="geometry" />
        </mxCell>
        <mxCell id="DADRpLbTm06VgSmmD6s6-27" value="" style="shape=document;whiteSpace=wrap;html=1;boundedLbl=1;rotation=-90;fillColor=none;" parent="1" vertex="1">
          <mxGeometry x="580" y="155" width="50" height="30" as="geometry" />
        </mxCell>
        <mxCell id="DADRpLbTm06VgSmmD6s6-28" value="" style="whiteSpace=wrap;html=1;aspect=fixed;fillColor=none;" parent="1" vertex="1">
          <mxGeometry x="190" y="215" width="50" height="50" as="geometry" />
        </mxCell>
        <mxCell id="DADRpLbTm06VgSmmD6s6-29" value="" style="whiteSpace=wrap;html=1;aspect=fixed;fillColor=none;" parent="1" vertex="1">
          <mxGeometry x="240" y="215" width="50" height="50" as="geometry" />
        </mxCell>
        <mxCell id="DADRpLbTm06VgSmmD6s6-30" value="1" style="whiteSpace=wrap;html=1;aspect=fixed;strokeWidth=1;fillColor=none;" parent="1" vertex="1">
          <mxGeometry x="290" y="215" width="50" height="50" as="geometry" />
        </mxCell>
        <mxCell id="DADRpLbTm06VgSmmD6s6-31" value="0" style="whiteSpace=wrap;html=1;aspect=fixed;strokeWidth=1;fillColor=none;" parent="1" vertex="1">
          <mxGeometry x="340" y="215" width="50" height="50" as="geometry" />
        </mxCell>
        <mxCell id="DADRpLbTm06VgSmmD6s6-32" value="1" style="whiteSpace=wrap;html=1;aspect=fixed;fillColor=none;" parent="1" vertex="1">
          <mxGeometry x="390" y="215" width="50" height="50" as="geometry" />
        </mxCell>
        <mxCell id="DADRpLbTm06VgSmmD6s6-33" value="" style="whiteSpace=wrap;html=1;aspect=fixed;strokeWidth=2;fillColor=#D4E1F5;fillOpacity=70;" parent="1" vertex="1">
          <mxGeometry x="440" y="215" width="50" height="50" as="geometry" />
        </mxCell>
        <mxCell id="DADRpLbTm06VgSmmD6s6-34" value="" style="whiteSpace=wrap;html=1;aspect=fixed;fillColor=none;" parent="1" vertex="1">
          <mxGeometry x="490" y="215" width="50" height="50" as="geometry" />
        </mxCell>
        <mxCell id="DADRpLbTm06VgSmmD6s6-35" value="" style="shape=document;whiteSpace=wrap;html=1;boundedLbl=1;rotation=90;fillColor=none;" parent="1" vertex="1">
          <mxGeometry x="150" y="225" width="50" height="30" as="geometry" />
        </mxCell>
        <mxCell id="DADRpLbTm06VgSmmD6s6-36" value="" style="shape=document;whiteSpace=wrap;html=1;boundedLbl=1;rotation=-90;fillColor=none;" parent="1" vertex="1">
          <mxGeometry x="530" y="225" width="50" height="30" as="geometry" />
        </mxCell>
        <mxCell id="DADRpLbTm06VgSmmD6s6-37" value="" style="whiteSpace=wrap;html=1;aspect=fixed;fillColor=none;" parent="1" vertex="1">
          <mxGeometry x="240" y="285" width="50" height="50" as="geometry" />
        </mxCell>
        <mxCell id="DADRpLbTm06VgSmmD6s6-38" value="" style="whiteSpace=wrap;html=1;aspect=fixed;fillColor=none;" parent="1" vertex="1">
          <mxGeometry x="290" y="285" width="50" height="50" as="geometry" />
        </mxCell>
        <mxCell id="DADRpLbTm06VgSmmD6s6-39" value="1" style="whiteSpace=wrap;html=1;aspect=fixed;strokeWidth=1;fillColor=none;" parent="1" vertex="1">
          <mxGeometry x="340" y="285" width="50" height="50" as="geometry" />
        </mxCell>
        <mxCell id="DADRpLbTm06VgSmmD6s6-40" value="0" style="whiteSpace=wrap;html=1;aspect=fixed;strokeWidth=1;fillColor=none;" parent="1" vertex="1">
          <mxGeometry x="390" y="285" width="50" height="50" as="geometry" />
        </mxCell>
        <mxCell id="DADRpLbTm06VgSmmD6s6-41" value="0" style="whiteSpace=wrap;html=1;aspect=fixed;strokeWidth=2;fillColor=#D4E1F5;fillOpacity=70;" parent="1" vertex="1">
          <mxGeometry x="440" y="285" width="50" height="50" as="geometry" />
        </mxCell>
        <mxCell id="DADRpLbTm06VgSmmD6s6-42" value="" style="whiteSpace=wrap;html=1;aspect=fixed;fillColor=none;" parent="1" vertex="1">
          <mxGeometry x="490" y="285" width="50" height="50" as="geometry" />
        </mxCell>
        <mxCell id="DADRpLbTm06VgSmmD6s6-43" value="" style="whiteSpace=wrap;html=1;aspect=fixed;fillColor=none;" parent="1" vertex="1">
          <mxGeometry x="540" y="285" width="50" height="50" as="geometry" />
        </mxCell>
        <mxCell id="DADRpLbTm06VgSmmD6s6-44" value="" style="shape=document;whiteSpace=wrap;html=1;boundedLbl=1;rotation=90;fillColor=none;" parent="1" vertex="1">
          <mxGeometry x="200" y="295" width="50" height="30" as="geometry" />
        </mxCell>
        <mxCell id="DADRpLbTm06VgSmmD6s6-45" value="" style="shape=document;whiteSpace=wrap;html=1;boundedLbl=1;rotation=-90;fillColor=none;" parent="1" vertex="1">
          <mxGeometry x="580" y="295" width="50" height="30" as="geometry" />
        </mxCell>
        <mxCell id="DADRpLbTm06VgSmmD6s6-46" value="" style="whiteSpace=wrap;html=1;aspect=fixed;fillColor=none;" parent="1" vertex="1">
          <mxGeometry x="290" y="355" width="50" height="50" as="geometry" />
        </mxCell>
        <mxCell id="DADRpLbTm06VgSmmD6s6-47" value="" style="whiteSpace=wrap;html=1;aspect=fixed;fillColor=none;" parent="1" vertex="1">
          <mxGeometry x="340" y="355" width="50" height="50" as="geometry" />
        </mxCell>
        <mxCell id="DADRpLbTm06VgSmmD6s6-48" value="1" style="whiteSpace=wrap;html=1;aspect=fixed;strokeWidth=1;fillColor=none;" parent="1" vertex="1">
          <mxGeometry x="390" y="355" width="50" height="50" as="geometry" />
        </mxCell>
        <mxCell id="DADRpLbTm06VgSmmD6s6-49" value="1" style="whiteSpace=wrap;html=1;aspect=fixed;strokeWidth=2;fillColor=#D4E1F5;fillOpacity=70;" parent="1" vertex="1">
          <mxGeometry x="440" y="355" width="50" height="50" as="geometry" />
        </mxCell>
        <mxCell id="DADRpLbTm06VgSmmD6s6-50" value="0" style="whiteSpace=wrap;html=1;aspect=fixed;strokeWidth=1;fillColor=none;" parent="1" vertex="1">
          <mxGeometry x="490" y="355" width="50" height="50" as="geometry" />
        </mxCell>
        <mxCell id="DADRpLbTm06VgSmmD6s6-51" value="" style="whiteSpace=wrap;html=1;aspect=fixed;fillColor=none;" parent="1" vertex="1">
          <mxGeometry x="540" y="355" width="50" height="50" as="geometry" />
        </mxCell>
        <mxCell id="DADRpLbTm06VgSmmD6s6-52" value="" style="whiteSpace=wrap;html=1;aspect=fixed;fillColor=none;" parent="1" vertex="1">
          <mxGeometry x="590" y="355" width="50" height="50" as="geometry" />
        </mxCell>
        <mxCell id="DADRpLbTm06VgSmmD6s6-53" value="" style="shape=document;whiteSpace=wrap;html=1;boundedLbl=1;rotation=90;fillColor=none;" parent="1" vertex="1">
          <mxGeometry x="250" y="365" width="50" height="30" as="geometry" />
        </mxCell>
        <mxCell id="DADRpLbTm06VgSmmD6s6-54" value="" style="shape=document;whiteSpace=wrap;html=1;boundedLbl=1;rotation=-90;fillColor=none;" parent="1" vertex="1">
          <mxGeometry x="630" y="365" width="50" height="30" as="geometry" />
        </mxCell>
        <mxCell id="DADRpLbTm06VgSmmD6s6-55" value="" style="shape=flexArrow;endArrow=classic;html=1;rounded=0;" parent="1" edge="1">
          <mxGeometry width="50" height="50" relative="1" as="geometry">
            <mxPoint x="240" y="99.5" as="sourcePoint" />
            <mxPoint x="180" y="99.5" as="targetPoint" />
          </mxGeometry>
        </mxCell>
        <mxCell id="DADRpLbTm06VgSmmD6s6-56" value="" style="shape=flexArrow;endArrow=classic;html=1;rounded=0;" parent="1" edge="1">
          <mxGeometry width="50" height="50" relative="1" as="geometry">
            <mxPoint x="190" y="169.5" as="sourcePoint" />
            <mxPoint x="130" y="169.5" as="targetPoint" />
          </mxGeometry>
        </mxCell>
        <mxCell id="DADRpLbTm06VgSmmD6s6-57" value="" style="shape=flexArrow;endArrow=classic;html=1;rounded=0;" parent="1" edge="1">
          <mxGeometry width="50" height="50" relative="1" as="geometry">
            <mxPoint x="140" y="239.5" as="sourcePoint" />
            <mxPoint x="80" y="239.5" as="targetPoint" />
          </mxGeometry>
        </mxCell>
        <mxCell id="DADRpLbTm06VgSmmD6s6-58" value="" style="shape=flexArrow;endArrow=classic;html=1;rounded=0;" parent="1" edge="1">
          <mxGeometry width="50" height="50" relative="1" as="geometry">
            <mxPoint x="650" y="309.5" as="sourcePoint" />
            <mxPoint x="710" y="309.5" as="targetPoint" />
          </mxGeometry>
        </mxCell>
        <mxCell id="DADRpLbTm06VgSmmD6s6-60" value="" style="shape=flexArrow;endArrow=classic;html=1;rounded=0;" parent="1" edge="1">
          <mxGeometry width="50" height="50" relative="1" as="geometry">
            <mxPoint x="700" y="379.5" as="sourcePoint" />
            <mxPoint x="760" y="379.5" as="targetPoint" />
          </mxGeometry>
        </mxCell>
      </root>
    </mxGraphModel>
  </diagram>
</mxfile>
